<?xml version="1.0" encoding="utf-8"?>
<svg xmlns="http://www.w3.org/2000/svg" id="Layer_1" data-name="Layer 1" viewBox="0 0 555.25 92.13">
  <defs>
    <style>.cls-1{fill:#fff;}</style>
  </defs>
  <title>Stars</title>
  <path fill="#ff9d1e" d="M154.44,100.78c2.61-9.49,4.91-19.09,8-28.44,1.79-5.49,1.15-8.88-4.08-12.14C151,55.62,144.21,50,135.85,43.91c11.33-.78,21.19-1.7,31.06-2,4.09-.13,5.88-1.6,7.18-5.38,3.08-8.94,6.69-17.7,10.58-27.81,3.9,10.18,7.51,19.18,10.76,28.31,1.17,3.3,2.74,4.69,6.41,4.83,10,0.37,20,1.25,31.68,2C225.28,49.93,218.46,55.55,211,60.2c-5.2,3.25-5.92,6.61-4.11,12.13,3.06,9.34,5.32,18.95,7.91,28.44h-1.14l-29-22-29.1,22h-1.14Z" transform="translate(-21.46 -8.66)"/>
  <path fill="#ff9d1e" d="M383.45,100.78c2.77-10.23,5.32-20.53,8.41-30.67,1.19-3.9.64-6.15-2.8-8.51-7.8-5.33-15.3-11.11-24.26-17.69,11.35-.78,21.21-1.72,31.08-2,4.14-.13,5.87-1.68,7.17-5.42,3.1-8.93,6.69-17.69,10.56-27.77C417.51,18.9,421.15,27.9,424.38,37c1.18,3.35,2.79,4.65,6.42,4.79,10,0.38,20,1.25,31.65,2-8.07,5.94-14.72,11.5-22,16-5.62,3.45-6.4,7.11-4.41,13,3.07,9.14,5.26,18.57,7.83,27.88H442.7l-29.1-22-29,22h-1.14Z" transform="translate(-21.46 -8.66)"/>
  <path fill="#ff9d1e" class="cls-1" d="M155.58,100.78l29.1-22,29,22H155.58Z" transform="translate(-21.46 -8.66)"/>
  <path fill="#ff9d1e" class="cls-1" d="M384.59,100.78l29-22,29.1,22H384.59Z" transform="translate(-21.46 -8.66)"/>
  <path fill="#ff9d1e" d="M268.94,100.64c2.88-10.53,4.84-19.79,8-28.6,2.1-5.84.54-8.77-4.29-11.89-7.26-4.7-14-10.13-22.37-16.24,11.67-.8,21.74-1.64,31.83-2.08,3.34-.15,5-1.24,6.09-4.42,3.22-9.08,6.83-18,10.94-28.74l7,18.43c5.64,14.84,5.64,14.8,21.68,15.52,6.17,0.28,12.33.75,20.21,1.24-9.2,6.75-17,12.63-25,18.24-2.69,1.89-3.57,3.54-2.51,7,3.06,9.9,5.6,20,8.81,31.65-9.26-6.6-17.33-12.06-25-18-3.69-2.83-6.32-3.23-10.22-.16C286.41,88.62,278.2,94.05,268.94,100.64Z" transform="translate(-21.46 -8.66)"/>
  <path fill="#ff9d1e" d="M70.19,79.2L40.1,100.59c2-7.44,3.61-13.45,5.16-19.49,1.4-5.46,4.88-11.67,3.39-16.21-1.41-4.28-8.11-6.84-12.5-10.13s-9-6.66-14.68-10.89c11.28-.77,21-1.73,30.78-2,4.4-.11,6.21-1.92,7.56-5.76,3-8.7,6.49-17.26,10.37-27.46,4,10.36,7.57,19.17,10.71,28.13,1.25,3.57,3,4.93,6.83,5.05,9.84,0.31,19.67,1.21,31.12,2-5.15,3.86-9.27,6.89-13.32,10-4.92,3.79-12.19,6.78-14,11.72-1.69,4.68,2.38,11.46,4,17.3,1.47,5.42,3,10.83,4.95,17.79Z" transform="translate(-21.46 -8.66)"/>
  <path fill="#ff9d1e" d="M479.23,43.89c11.41-.78,21.15-1.74,30.91-2,4.4-.11,6.21-1.89,7.55-5.74,3-8.71,6.48-17.28,10.35-27.46,3.77,9.75,7.37,18,10.08,26.51,1.59,5,4,6.73,9.2,6.79,9.27,0.12,18.53,1.1,29.4,1.84-4.84,3.63-8.66,6.42-12.4,9.31-5.21,4-12.92,7.21-14.8,12.46-1.78,5,2.56,12.17,4.23,18.38,1.36,5.07,2.76,10.12,4.54,16.62L542.84,89.69,528.13,79.24l-30.25,21.32C501,89,503.61,79,506.64,69.08c1-3.37.26-5.06-2.47-7C496.19,56.5,488.39,50.62,479.23,43.89Z" transform="translate(-21.46 -8.66)"/>
</svg>