<?xml version="1.0" encoding="utf-8"?>
<svg xmlns="http://www.w3.org/2000/svg" version="1.0" width="386.000000pt" height="137.000000pt" viewBox="0 0 386.000000 137.000000" preserveAspectRatio="xMidYMid meet">

<g transform="translate(0.000000,137.000000) scale(0.100000,-0.100000)" fill="#cd2b1e" stroke="none">
<path d="M405 1356 c-40 -19 -381 -363 -395 -399 -14 -38 -14 -506 0 -544 14&#xD;&#xA;-37 356 -381 397 -399 40 -17 505 -20 550 -4 37 14 381 356 399 397 20 47 20&#xD;&#xA;509 0 556 -18 41 -362 383 -399 397 -44 16 -514 13 -552 -4z m717 -234 l188&#xD;&#xA;-188 0 -249 0 -249 -188 -188 -188 -188 -249 0 -249 0 -188 188 -188 188 0&#xD;&#xA;249 0 249 188 188 188 188 249 0 249 0 188 -188z"/>
<path d="M652 1178 c-9 -9 -12 -73 -12 -225 0 -183 -2 -213 -15 -213 -13 0&#xD;&#xA;-15 27 -15 184 0 196 -5 216 -50 216 -45 0 -50 -20 -50 -217 0 -143 -3 -184&#xD;&#xA;-12 -181 -9 3 -14 44 -18 139 -3 74 -9 140 -13 147 -10 15 -49 16 -65 0 -9 -9&#xD;&#xA;-12 -95 -12 -327 0 -296 2 -319 21 -361 43 -96 123 -150 230 -158 56 -4 75 -1&#xD;&#xA;120 20 56 26 95 58 122 99 20 30 167 453 167 480 0 26 -44 35 -74 15 -16 -10&#xD;&#xA;-35 -45 -57 -101 -17 -47 -37 -84 -43 -82 -8 2 -12 82 -14 252 -1 163 -6 253&#xD;&#xA;-13 262 -15 17 -53 17 -68 0 -6 -9 -12 -83 -13 -198 -3 -156 -5 -184 -18 -184&#xD;&#xA;-13 0 -15 31 -18 209 -1 134 -6 214 -13 223 -14 16 -51 17 -67 1z"/>
<path d="M1740 675 l65 -446 85 3 85 3 27 190 c14 105 30 228 34 275 10 124&#xD;&#xA;20 137 27 39 4 -46 21 -178 37 -294 17 -115 30 -211 30 -212 0 -2 38 -3 85 -3&#xD;&#xA;80 0 85 1 90 22 6 28 125 844 125 858 0 6 -28 10 -64 10 l-64 0 -6 -32 c-6&#xD;&#xA;-38 -62 -445 -72 -533 -7 -56 -9 -45 -35 160 -16 121 -34 261 -41 310 l-13 90&#xD;&#xA;-72 3 c-71 3 -71 3 -77 -25 -7 -37 -63 -440 -72 -528 l-8 -70 -9 65 c-31 236&#xD;&#xA;-68 509 -73 533 -5 26 -7 27 -78 27 l-72 0 66 -445z"/>
<path d="M2501 693 c-41 -235 -76 -435 -79 -445 -4 -16 3 -18 61 -18 73 0 71&#xD;&#xA;-2 83 82 l6 48 88 0 88 0 12 -65 12 -65 69 0 c56 0 69 3 69 16 0 15 -135 805&#xD;&#xA;-145 852 -5 21 -10 22 -98 22 l-93 0 -73 -427z m211 -116 c8 -48 12 -89 10&#xD;&#xA;-92 -3 -3 -32 -5 -64 -5 -40 0 -58 4 -58 13 0 16 50 385 57 417 3 15 13 -31&#xD;&#xA;24 -110 9 -74 24 -174 31 -223z"/>
<path d="M3010 675 l0 -445 70 0 70 0 0 445 0 445 -70 0 -70 0 0 -445z"/>
<path d="M3220 1060 l0 -60 70 0 70 0 0 -385 0 -385 70 0 70 0 0 385 0 385 70&#xD;&#xA;0 70 0 0 60 0 60 -210 0 -210 0 0 -60z"/>
<path d="M3710 938 c0 -101 7 -246 15 -323 8 -77 15 -143 15 -147 0 -5 18 -8&#xD;&#xA;40 -8 31 0 40 4 40 18 0 9 7 82 15 162 8 80 15 220 15 313 l0 167 -70 0 -70 0&#xD;&#xA;0 -182z"/>
<path d="M3710 305 l0 -75 70 0 70 0 0 75 0 75 -70 0 -70 0 0 -75z"/>
</g>
</svg>