<?xml version="1.0" encoding="utf-8"?>
<svg xmlns="http://www.w3.org/2000/svg" id="Layer_1" data-name="Layer 1" viewBox="0 0 359.29 359.3">
  <defs>
    <style>.cls-1{fill:#fff;}</style>
  </defs>
  <title>bag</title>
  <path fill="#f13f71" d="M165.23,14.75c6.38,2,13.17,3.12,19.05,6.06,22,11,33.27,29.22,34.06,53.83,0.12,3.84,0,7.69,0,11.93H290v48.2H266.4v-24H218.51v23.53h-24V110.82H122.59v23.51H98.72V110.76h-48v3.82q0,105,0,209.91c0,15.43,10.11,25.6,25.48,25.61q48.45,0,96.91,0a7.29,7.29,0,0,1,5.74,2.53c7.19,7.23,14.65,14.19,22.06,21.29-0.71,0-1.85.15-3,.15q-61.36,0-122.73,0c-24.08,0-43.57-16.47-47.76-40.21a9.1,9.1,0,0,0-.66-1.69V86.61H98.63c0-4.57-.14-8.67,0-12.76,0.92-23.51,11.68-41.18,32.4-52.18,6.34-3.36,13.77-4.67,20.7-6.92h13.47ZM194.4,86.46c0-4.58.12-8.8,0-13C193.48,46,163.23,29.58,139.92,44,124.07,53.82,121,68.33,123,86.46H194.4Z" transform="translate(-26.75 -14.75)"/>
  <path fill="#f13f71" class="cls-1" d="M151.75,14.75c-6.93,2.25-14.36,3.55-20.7,6.92-20.73,11-31.49,28.66-32.4,52.18-0.16,4.09,0,8.19,0,12.76H26.75V14.75h125Z" transform="translate(-26.75 -14.75)"/>
  <path fill="#f13f71" d="M386,266.32c0,59.41-48.5,107.78-107.94,107.71S170.36,325.43,170.47,266c0.12-59.23,48.51-107.51,107.77-107.52A107.94,107.94,0,0,1,386,266.32Zm-23.93-.13a83.84,83.84,0,1,0-167.69.3c0.07,46.06,37.85,83.66,84,83.6A84,84,0,0,0,362.1,266.19Z" transform="translate(-26.75 -14.75)"/>
  <path fill="#f13f71" class="cls-1" d="M194.4,86.46H123c-2-18.13,1.08-32.64,16.92-42.45,23.31-14.43,53.56,2,54.46,29.43C194.52,77.66,194.4,81.89,194.4,86.46Z" transform="translate(-26.75 -14.75)"/>
  <path fill="#f13f71" class="cls-1" d="M362.1,266.19a84,84,0,0,1-83.69,83.91c-46.15.06-83.92-37.54-84-83.6A83.84,83.84,0,1,1,362.1,266.19ZM330,242.68l-16.75-17.22-47.39,47.71L243,249.72l-16.77,16.46,40.1,40.16Z" transform="translate(-26.75 -14.75)"/>
  <path fill="#f13f71" d="M330,242.68l-63.63,63.67-40.1-40.16L243,249.72l22.82,23.45,47.39-47.71Z" transform="translate(-26.75 -14.75)"/>
</svg>