<?xml version="1.0" encoding="utf-8"?>
<svg xmlns="http://www.w3.org/2000/svg" id="Layer_1" data-name="Layer 1" viewBox="0 0 276.15 334.39">
  <defs>
    <style>.cls-1{fill:#fff;}</style>
  </defs>
  <title>location</title>
  <path fill="#f13f71" d="M316.34,211.63l-35-13.68q-18.91-7.39-37.81-14.8c-4.36-1.71-6.15-4.83-4.78-8.18,1.44-3.52,4.73-4.64,9.07-2.95q42.68,16.65,85.36,33.31c3.66,1.42,5.16,3.76,5.16,7.63q-0.1,44.61,0,89.23c0,4.26-1.75,6.58-5.51,8.23-39.54,17.45-79.17,34.7-118.44,52.74-9.37,4.3-16.87,4.54-26.41.2-39.88-18.18-80.18-35.46-120.36-53-3.77-1.64-5.46-4-5.44-8.26,0.13-29.37.07-58.74,0.07-88.11,0-5.94.62-6.87,6.24-9.06L151,172.7l1.74-.67c4.29-1.6,7.72-.44,9,3s-0.44,6.4-4.56,8q-14.37,5.68-28.78,11.27l-40.94,16c-0.9.35-1.77,0.82-3.17,1.48l25.69,11q44,18.81,88.06,37.55a7.82,7.82,0,0,0,5.52.13Q258.73,236.87,313.74,213C314.42,212.68,315.06,212.3,316.34,211.63ZM195,353.11c0-2.2,0-3.69,0-5.17,0-23.89-.06-47.78.1-71.67,0-3.31-1.13-4.67-4.06-5.9Q139,248.24,86.93,225.86c-4.08-1.74-8.19-3.4-12.57-5.21-0.1,1.17-.21,1.88-0.21,2.59,0,24.76,0,49.52-.08,74.29,0,2.48,1.19,3.1,3,3.89q45.9,20.08,91.76,40.24C177.34,345.39,185.85,349.1,195,353.11Zm12.1-.32c1.27-.44,2.31-0.73,3.3-1.17q56.5-25.06,113-50.08c2.35-1,3-2.3,2.94-4.73-0.09-24.13-.05-48.26-0.05-72.39v-3.61c-1.17.4-2,.62-2.74,0.95q-56.92,24.56-113.86,49.09c-2.2.94-2.84,2.12-2.84,4.42C207,300,207,324.8,207,349.55,207,350.51,207.06,351.48,207.13,352.79Z" transform="translate(-62.16 -32.12)"/>
  <path fill="#f13f71" d="M200.16,32.12c25.1,0.54,43.16,11.48,56.49,30.56,9.23,13.21,15,27.78,14.37,44.25-0.6,15.31-6.41,28.86-15.57,40.83S236.25,171.22,226.74,183c-9,11.12-16.39,23.1-19.91,37.17a5.64,5.64,0,0,1-5.58,4.63c-2.92.09-5.24-1.34-5.88-4.2-4.48-20-16.84-35.43-29.41-50.78-7.47-9.13-14.9-18.34-21.59-28a65.47,65.47,0,0,1-12-37.82c0-24.15,19.76-63.49,57.3-70.62C193.57,32.63,197.55,32.42,200.16,32.12Zm1.26,167.79c0.29-.43.61-0.91,0.94-1.39,6.92-10,13.55-20.19,20.85-29.89,6.95-9.22,14.84-17.72,21.88-26.88,8.09-10.53,13.63-22.27,14.06-35.86,0.7-22.2-16.06-48.52-36.67-57.24-18-7.61-35.23-5.88-51.15,5.57-10.68,7.68-17.73,18.24-22.73,30.32-6,14.53-5.83,28.9,1.42,42.83a128.22,128.22,0,0,0,11.75,18.51c9,11.85,18.81,23.15,27.8,35C194,186.79,197.45,193.47,201.42,199.91Z" transform="translate(-62.16 -32.12)"/>
  <path fill="#f13f71" class="cls-1" d="M195,353.11c-9.18-4-17.69-7.72-26.19-11.45Q123,321.54,77.07,301.43c-1.81-.79-3-1.41-3-3.89,0.13-24.76.07-49.52,0.08-74.29,0-.71.11-1.43,0.21-2.59,4.38,1.81,8.49,3.46,12.57,5.21q52.06,22.27,104.15,44.5c2.92,1.24,4.08,2.59,4.06,5.9C195,300.16,195,324,195,347.94,195,349.42,195,350.91,195,353.11Z" transform="translate(-62.16 -32.12)"/>
  <path fill="#f13f71" class="cls-1" d="M207.13,352.79c-0.07-1.32-.17-2.28-0.17-3.24,0-24.75,0-49.5-.07-74.26,0-2.31.64-3.48,2.84-4.42q57-24.47,113.86-49.09c0.76-.33,1.58-0.55,2.74-0.95v3.61c0,24.13,0,48.26.05,72.39,0,2.43-.59,3.69-2.94,4.73q-56.55,24.94-113,50.08C209.45,352.06,208.4,352.35,207.13,352.79Zm97.44-63.7v0a45.57,45.57,0,0,0,6,0,5.68,5.68,0,0,0,5.3-5.75,5.77,5.77,0,0,0-5.42-6c-3.72-.19-7.46-0.18-11.18,0a5.87,5.87,0,0,0-5.7,5.77,6,6,0,0,0,5.82,6.06C301.08,289.19,302.83,289.09,304.57,289.09ZM283.45,298v0c2,0,4,.15,6,0a5.83,5.83,0,0,0,5.54-5.93c-0.12-3.34-2.06-5.51-5.24-5.79a67.07,67.07,0,0,0-11.91,0c-3.23.29-5,2.53-5.12,5.84a5.81,5.81,0,0,0,5.19,5.84A54.91,54.91,0,0,0,283.45,298Z" transform="translate(-62.16 -32.12)"/>
  <path fill="#f13f71" class="cls-1" d="M201.42,199.91c-4-6.44-7.39-13.12-11.85-19-9-11.88-18.76-23.18-27.8-35A128.22,128.22,0,0,1,150,127.36c-7.25-13.93-7.44-28.3-1.42-42.83,5-12.08,12-22.64,22.73-30.32,15.92-11.45,33.16-13.18,51.15-5.57,20.61,8.72,37.37,35,36.67,57.24-0.43,13.59-6,25.33-14.06,35.86-7,9.16-14.93,17.66-21.88,26.88-7.3,9.7-13.93,19.91-20.85,29.89C202,199,201.71,199.48,201.42,199.91Zm26.41-97.4A26.85,26.85,0,1,0,201,129.28,26.93,26.93,0,0,0,227.84,102.51Z" transform="translate(-62.16 -32.12)"/>
  <path fill="#f13f71" d="M304.57,289.09c-1.74,0-3.49.1-5.22,0a6,6,0,0,1-5.82-6.06,5.87,5.87,0,0,1,5.7-5.77c3.72-.17,7.46-0.18,11.18,0a5.77,5.77,0,0,1,5.42,6,5.68,5.68,0,0,1-5.3,5.75,45.57,45.57,0,0,1-6,0v0Z" transform="translate(-62.16 -32.12)"/>
  <path fill="#f13f71" d="M283.45,298a54.91,54.91,0,0,1-5.59,0,5.81,5.81,0,0,1-5.19-5.84c0.09-3.31,1.89-5.56,5.12-5.84a67.07,67.07,0,0,1,11.91,0c3.18,0.29,5.12,2.46,5.24,5.79a5.83,5.83,0,0,1-5.54,5.93c-2,.18-4,0-6,0v0Z" transform="translate(-62.16 -32.12)"/>
  <path fill="#f13f71" d="M227.84,102.51a26.85,26.85,0,1,1-26.66-27A26.92,26.92,0,0,1,227.84,102.51Zm-11.92,0a14.92,14.92,0,1,0-15,14.82A15,15,0,0,0,215.91,102.53Z" transform="translate(-62.16 -32.12)"/>
  <path class="cls-1" d="M215.91,102.53a14.92,14.92,0,1,1-14.8-15.05A15,15,0,0,1,215.91,102.53Z" transform="translate(-62.16 -32.12)"/>
</svg>