<?xml version="1.0" encoding="utf-8"?>
<svg xmlns="http://www.w3.org/2000/svg" id="Layer_1" data-name="Layer 1" viewBox="0 0 383.95 383.91">
  <defs>
    <style>.cls-1{fill:#fff;}</style>
  </defs>
  <title>mailing</title>
  <path fill="#f13f71" d="M392.7,133V375.5q-3.77,12.54-16.5,15.72h-351Q12.52,388,8.75,375.5q0-121.25,0-242.49a58.47,58.47,0,0,1,4.45-3.86q25.18-17.88,50.45-35.64a5.92,5.92,0,0,0,2.81-5.56c-0.12-11.47-.09-22.94,0-34.41a15,15,0,0,1,1-5.8c2.57-5.83,7.39-8,13.6-7.94q26.8,0.14,53.59,0c2.37,0,5.16-.38,7-1.65,9.72-6.56,19.34-13.29,28.75-20.29a51.18,51.18,0,0,1,59.59-.7c9.24,6.6,18.55,13.11,27.7,19.83a14.71,14.71,0,0,0,9.35,2.93q27-.2,54,0c8.82,0.06,13.88,5.28,13.92,14,0.05,11.35.1,22.69,0,34a5.91,5.91,0,0,0,2.84,5.54q25.14,17.63,50.14,35.44C389.64,130.14,391.12,131.65,392.7,133ZM79.36,52.84c-0.09.94-.21,1.66-0.21,2.38q0,61.36.13,122.71a6.39,6.39,0,0,0,2.19,4.25q47,39.2,94.19,78.19c12.48,10.27,26.71,12.61,41.32,5.48,6.81-3.33,12.69-8.73,18.64-13.63,27.94-23,55.73-46.19,83.65-69.22a7.65,7.65,0,0,0,3.07-6.61Q322.2,116.72,322.26,57c0-1.34,0-2.67,0-4.2H79.36Zm157,215.78c-23.93,18.7-47.66,18.54-71.31,0L33.09,378.1H368.39Zm-81.06-8.49L21.84,149.42V370.84Zm90.83,0L379.72,370.89V149.36Zm89-90.45L375.82,136l-40.66-28.73V169.7ZM66,169.45v-62L25.65,136ZM238.27,39.64l0.36-.91c-7-4.72-13.94-9.54-21.05-14.1A25.1,25.1,0,0,0,211,22.11c-20.12-5.81-33.82,6.1-48.54,17.53h75.85Z" transform="translate(-8.75 -7.31)"/>
  <path class="cls-1" d="M392.7,133c-1.58-1.36-3.05-2.87-4.75-4.07q-25-17.78-50.14-35.44A5.91,5.91,0,0,1,335,88c0.13-11.34.09-22.69,0-34,0-8.77-5.09-14-13.92-14q-27-.17-54,0A14.71,14.71,0,0,1,257.78,37c-9.16-6.72-18.46-13.23-27.7-19.83a51.18,51.18,0,0,0-59.59.7c-9.41,7-19,13.73-28.75,20.29-1.88,1.27-4.67,1.63-7,1.65q-26.79.19-53.59,0c-6.2,0-11,2.11-13.6,7.94a15,15,0,0,0-1,5.8c-0.1,11.47-.13,22.94,0,34.41a5.92,5.92,0,0,1-2.81,5.56q-25.3,17.71-50.45,35.64A58.47,58.47,0,0,0,8.75,133q0-62.83,0-125.7H392.7V133Z" transform="translate(-8.75 -7.31)"/>
  <path class="cls-1" d="M8.75,375.5q3.77,12.54,16.5,15.72H8.75V375.5Z" transform="translate(-8.75 -7.31)"/>
  <path class="cls-1" d="M376.2,391.22q12.73-3.17,16.5-15.72v15.72H376.2Z" transform="translate(-8.75 -7.31)"/>
  <path class="cls-1" d="M79.36,52.84h242.9c0,1.53,0,2.87,0,4.2q0,59.67.07,119.34a7.65,7.65,0,0,1-3.07,6.61c-27.92,23-55.71,46.21-83.65,69.22-5.95,4.9-11.83,10.3-18.64,13.63-14.61,7.13-28.84,4.79-41.32-5.48q-47.27-38.88-94.19-78.19a6.39,6.39,0,0,1-2.19-4.25q-0.2-61.35-.13-122.71C79.15,54.5,79.27,53.78,79.36,52.84ZM213.87,180.73c3.21,6,7.93,9.67,14.47,10.48,11.77,1.46,21.75-2.12,29.5-11.18,13.38-15.65,17.25-33.8,12.8-53.55-7-31-34.2-50.9-66.84-48.54-37.42,2.7-62.86,22.83-76.82,56.74-13,31.68,2.62,68.19,34.18,81.36,21.79,9.09,44.74,11.11,68.05,7,18.16-3.18,33.84-11.1,45.91-25.37,3.07-3.63,3-7.4-.09-9.87s-6.6-1.9-9.53,1.56c-8.89,10.48-20.25,16.87-33.47,20.08-20.23,4.92-40.16,2.94-59.91-2.82-26.57-7.75-42.56-36.83-34.81-63.36C147,110,181,87.38,215.52,91.05c36.41,3.87,56.21,45.34,36.27,76-4.85,7.46-11.13,12.45-20.68,11.64-4.57-.39-6.18-2.54-5.13-7,1.22-5.08,2.58-10.13,3.64-15.25,2.61-12.56,5.11-25.13,7.59-37.72,0.78-3.95-1.32-7.19-4.93-8s-6.63,1.43-7.58,5.46c-0.36,1.53-.68,3.07-1,4.61l-1,.77a16.24,16.24,0,0,0-2-3.05,30.18,30.18,0,0,0-35-5.44c-18.17,9.52-30.11,31.12-28.46,51.48,1.37,16.94,15.47,28.66,32.36,27.07A41.25,41.25,0,0,0,213.87,180.73Z" transform="translate(-8.75 -7.31)"/>
  <path class="cls-1" d="M236.38,268.62l132,109.47H33.09l132-109.45C188.72,287.17,212.45,287.33,236.38,268.62Z" transform="translate(-8.75 -7.31)"/>
  <path class="cls-1" d="M155.32,260.14L21.84,370.84V149.42Z" transform="translate(-8.75 -7.31)"/>
  <path class="cls-1" d="M246.15,260.15L379.72,149.36V370.89Z" transform="translate(-8.75 -7.31)"/>
  <path class="cls-1" d="M335.17,169.7V107.24L375.82,136Z" transform="translate(-8.75 -7.31)"/>
  <path class="cls-1" d="M66,169.45L25.65,136,66,107.44v62Z" transform="translate(-8.75 -7.31)"/>
  <path class="cls-1" d="M238.27,39.64H162.42C177.14,28.21,190.84,16.3,211,22.11a25.1,25.1,0,0,1,6.62,2.51c7.11,4.56,14,9.38,21.05,14.1Z" transform="translate(-8.75 -7.31)"/>
  <path fill="#f13f71" d="M213.87,180.73a41.25,41.25,0,0,1-24.25,10.93c-16.9,1.59-31-10.13-32.36-27.07-1.65-20.35,10.29-42,28.46-51.48a30.18,30.18,0,0,1,35,5.44,16.24,16.24,0,0,1,2,3.05l1-.77c0.34-1.54.65-3.08,1-4.61,0.95-4,4-6.23,7.58-5.46s5.71,4,4.93,8c-2.48,12.58-5,25.16-7.59,37.72-1.06,5.11-2.43,10.16-3.64,15.25-1.06,4.41.55,6.57,5.13,7,9.55,0.81,15.83-4.18,20.68-11.64,19.94-30.64.14-72.11-36.27-76C181,87.38,147,110,137.31,143.28c-7.75,26.53,8.24,55.62,34.81,63.36,19.75,5.76,39.68,7.74,59.91,2.82,13.22-3.22,24.58-9.6,33.47-20.08,2.93-3.45,6.57-4,9.53-1.56s3.17,6.24.09,9.87c-12.07,14.27-27.74,22.19-45.91,25.37-23.31,4.08-46.26,2.06-68.05-7C129.61,202.86,114,166.34,127,134.67c14-33.91,39.4-54,76.82-56.74,32.64-2.36,59.84,17.5,66.84,48.54,4.45,19.75.58,37.9-12.8,53.55-7.75,9.06-17.73,12.64-29.5,11.18C221.8,190.4,217.08,186.78,213.87,180.73Zm-44-23.9c-0.14,17.9,10.05,25.46,24.56,20.92,9.06-2.83,15.23-9.55,19.47-17.26,6.26-11.38,8.17-20.43-.42-30.71-0.16-.19-0.31-0.39-0.46-0.59a16.8,16.8,0,0,0-21.53-4.65A41.92,41.92,0,0,0,169.9,156.83Z" transform="translate(-8.75 -7.31)"/>
  <path class="cls-1" d="M169.9,156.83a41.92,41.92,0,0,1,21.63-32.28,16.8,16.8,0,0,1,21.53,4.65c0.15,0.2.3,0.4,0.46,0.59,8.59,10.28,6.68,19.32.42,30.71-4.24,7.71-10.42,14.43-19.47,17.26C180,182.29,169.76,174.73,169.9,156.83Z" transform="translate(-8.75 -7.31)"/>
</svg>