<?xml version="1.0" encoding="utf-8"?>
<svg xmlns="http://www.w3.org/2000/svg" height="512.000000pt" preserveAspectRatio="xMidYMid meet" version="1.0" viewBox="0 0 512.000000 512.000000" width="512.000000pt">

<g fill="#f13f71" stroke="none" transform="translate(0.000000,512.000000) scale(0.100000,-0.100000)">
<path d="M2371 5110 c-877 -73 -1628 -558 -2054 -1325 -294 -528 -385 -1180&#xD;&#xA;-251 -1785 212 -956 978 -1722 1934 -1934 363 -80 755 -80 1120 0 954 210&#xD;&#xA;1721 978 1934 1934 80 363 80 757 0 1120 -232 1042 -1104 1837 -2164 1974&#xD;&#xA;-150 20 -388 27 -519 16z m1470 -1547 c109 -108 206 -212 215 -231 10 -21 14&#xD;&#xA;-46 10 -65 -5 -26 -190 -216 -938 -964 -527 -527 -945 -937 -961 -943 -16 -5&#xD;&#xA;-40 -7 -55 -4 -18 4 -198 177 -540 518 -534 533 -536 535 -517 598 11 37 403&#xD;&#xA;426 442 439 62 20 83 5 368 -281 l270 -270 700 700 700 700 54 0 54 0 198&#xD;&#xA;-197z"/>
</g>
</svg>