<?xml version="1.0" encoding="utf-8"?>
<svg xmlns="http://www.w3.org/2000/svg" id="Layer_1" data-name="Layer 1" viewBox="0 0 198.91 116.29">
  <defs>
    <style>.cls-1{fill:#f13f71;}</style>
  </defs>
  <title>1</title>
  <path class="cls-1" d="M.37,68.83a5.52,5.52,0,0,1,5.1-2.5c16,.07,31.94,0,47.9,0,1.62,0,3.1.21,4.18,1.57a4.32,4.32,0,0,1-2,6.82,8.7,8.7,0,0,1-2.87.35q-23.28,0-46.54,0c-2.43,0-4.48-.55-5.79-2.77Z" transform="translate(-0.37)"/>
  <path class="cls-1" d="M137.24,24.85h2.16c7.9,0,15.79-.08,23.69,0,19.57.27,36.44,17.44,36.18,36.85-.05,4.14-1.32,8.15-2,12.22-1.2,6.88-2.54,13.73-3.8,20.6-.79,4.24-2.09,5.36-6.38,5.38H182.6c-3.68,10.86-10.83,17.11-22.46,16.28-9.88-.69-15.86-6.77-18.82-16.13H91.4c-3.4,10-9.89,16.31-20.88,16.19-10.71-.13-17.07-6.32-20.41-16.34H40a12.92,12.92,0,0,1-3.28-.22,4.43,4.43,0,0,1-3.45-4.54,4.31,4.31,0,0,1,4.31-3.93c3.42-.06,6.86,0,10.29,0h2.16c3.4-10.58,10.28-16.58,21.53-16.6a19.52,19.52,0,0,1,12.61,4.85,22.27,22.27,0,0,1,7.12,11.61H112.8q9.32-40.84,18.66-81.86a4.07,4.07,0,0,0-2.82-.46H39.92c-.77,0-1.55,0-2.32,0a4.41,4.41,0,0,1-4.29-4.41A4.4,4.4,0,0,1,37.53,0c.51,0,1,0,1.55,0h96.48C140.33,0,142,2.14,141,6.74q-1.8,7.95-3.62,15.89A4.34,4.34,0,0,0,137.24,24.85ZM184.86,91a2.2,2.2,0,0,0,.62-1.39q1.94-10.38,3.88-20.76c.73-3.87,1.76-7.71,1-11.7a28.91,28.91,0,0,0-28.29-23.58c-8.28,0-16.56,0-24.83,0a4,4,0,0,0-2.41.42q-6.41,28.17-13,57H141.3c3.06-9.79,9.33-15.9,19.55-16.33,11.32-.48,18.29,5.78,21.68,16.35A4.1,4.1,0,0,0,184.86,91ZM58.69,95.42a11.89,11.89,0,0,0,12.07,12.19A12.15,12.15,0,1,0,58.69,95.42ZM162,107.61a12.15,12.15,0,0,0,12.18-12,12.25,12.25,0,0,0-24.5,0A12.14,12.14,0,0,0,162,107.61Z" transform="translate(-0.37)"/>
  <path class="cls-1" d="M33.78,41.52q9.88,0,19.78,0c3,0,4.92,1.64,5,4.22.07,2.43-2,4.45-4.88,4.46q-20.16.07-40.33,0c-3,0-5-2-4.89-4.61s2.1-4.06,5.16-4.06Q23.7,41.51,33.78,41.52Z" transform="translate(-0.37)"/>
  <path class="cls-1" d="M37.64,16.66c5.31,0,10.62,0,15.92,0,3,0,4.93,1.64,5,4.23.06,2.43-2,4.43-4.9,4.45q-16,.07-32,0c-2.89,0-5-2-4.9-4.45.06-2.58,2-4.22,5-4.23C27,16.65,32.34,16.66,37.64,16.66Z" transform="translate(-0.37)"/>
</svg>