<?xml version="1.0" encoding="utf-8"?>
<svg xmlns="http://www.w3.org/2000/svg" id="Layer_2" data-name="Layer 2" viewBox="0 0 198.83 198.76">
  <defs>
    <style>.cls-1{fill:#f13f71;}</style>
  </defs>
  <title>2</title>
  <path class="cls-1" d="M41.13,186.89c-1.08,2.24-2,4.24-3.54,5.81a13.19,13.19,0,0,1-8.81,4.11c-5.47.27-11,.57-16.44-.16A13.47,13.47,0,0,1,.49,183.14q-.09-24.82,0-49.65a13.53,13.53,0,0,1,13.76-13.61c4.3,0,8.59,0,12.89,0,6.42-.07,10.84,2.89,13.43,8.7.2.45.44.87.63,1.24,1.07.42,1.89-.14,2.73-.42q11.53-3.81,23-7.67a34.39,34.39,0,0,1,22.38,0c11.22,3.73,22.42,7.51,33.73,11,8.23,2.53,13,7.44,13,16.61,3.85-.53,7.59-1,11.33-1.58,11.69-1.73,23.37-3.51,35.06-5.2,7.06-1,14.49,4.33,16.31,11.59a15.21,15.21,0,0,1-9.71,18.16c-12.71,4.37-25.48,8.55-38.24,12.8-12.21,4.08-24.45,8.1-36.65,12.23a32.34,32.34,0,0,1-26-1.83c-6.48-3.27-13-6.43-19.45-9.76a15,15,0,0,0-10.15-1.74C52.84,185.05,47,185.91,41.13,186.89Zm.61-10.39a2.53,2.53,0,0,0,2.11.34c3.61-.61,7.25-1.06,10.81-1.89A26,26,0,0,1,74,177.66c5.83,3.26,12,6,17.91,9a24.3,24.3,0,0,0,19.81,1.4c13.45-4.61,27-9,40.45-13.52,11.09-3.7,22.18-7.37,33.25-11.11,3.33-1.13,5-4.05,4.17-7.06s-3.74-4.87-7.18-4.36q-24.93,3.72-49.87,7.39a7.25,7.25,0,0,0-3.18,1c-3.75,2.51-7.85,2.86-12.16,2.07-5.74-1.05-11.49-2.06-17.24-3.11-7.47-1.37-14.94-2.72-22.4-4.15a4.45,4.45,0,0,1-4-4A4.63,4.63,0,0,1,79.29,146c9.91,1.72,19.79,3.59,29.7,5.33,4,.7,8,1.81,12.06,2,3.33.12,5.54-2.27,5.46-5.6-.06-2.6-1.42-4.34-4.34-5.3-11.83-3.9-23.69-7.72-35.51-11.66a25.78,25.78,0,0,0-17,0c-8.53,2.9-17.09,5.71-25.63,8.58a4.18,4.18,0,0,0-2.32,1.18ZM10,158.3c0,8,0,16.06,0,24.08,0,3.27,1.65,5,4.89,5.08q6,.12,12,0c3.45-.07,5.16-1.81,5.17-5.32q.06-23.88,0-47.74c0-3.45-1.67-5-5.1-5-3.95,0-7.89,0-11.83,0-3.79,0-5.17,1.43-5.18,5.28Q10,146.47,10,158.3Z" transform="translate(-0.44 -0.39)"/>
  <path class="cls-1" d="M154.12,63.75a49.78,49.78,0,1,1-99.56-.38c0-27.28,22.56-49.57,50-49.52A49.7,49.7,0,0,1,154.12,63.75Zm-9.5,0a40.18,40.18,0,0,0-39.95-40.39c-22.2-.1-40.52,17.86-40.59,39.8A40.32,40.32,0,0,0,103.89,104C126.32,104.27,144.86,85.87,144.62,63.76Z" transform="translate(-0.44 -0.39)"/>
  <path class="cls-1" d="M171.22,115.15a4.78,4.78,0,0,0,.45-2.76q0-18.81,0-37.61a10.64,10.64,0,0,1,.45-3.76A4.77,4.77,0,0,1,176.93,68a4.64,4.64,0,0,1,4.18,4.11,19.87,19.87,0,0,1,0,2.32q0,19,0,38V115c2.1-1.38,3.4-3.13,5-4.58,1.28-1.19,2.67-2.11,4.52-1.81a4.65,4.65,0,0,1,3.07,7.44,41,41,0,0,1-4,4.32c-3.07,3.09-6.13,6.22-9.3,9.22-2.83,2.67-5.15,2.58-7.9-.14-4.21-4.16-8.42-8.32-12.54-12.57-2.87-3-1.88-7.19,1.82-8.21a4.48,4.48,0,0,1,4.62,1.35C168,111.65,169.48,113.3,171.22,115.15Z" transform="translate(-0.44 -0.39)"/>
  <path class="cls-1" d="M32.12,27.49c0-4.29,0-8.59,0-12.88,0-3.1,1.88-5.24,4.55-5.3a4.86,4.86,0,0,1,4.87,5.07q.15,13.11,0,26.2c0,3.31-2,5.25-4.88,5.2s-4.54-2-4.55-5.4C32.11,36.08,32.12,31.79,32.12,27.49Z" transform="translate(-0.44 -0.39)"/>
  <path class="cls-1" d="M180.87,36.5c0-4.37,0-8.74,0-13.1,0-3,1.68-4.83,4.34-4.94A4.62,4.62,0,0,1,190.27,23c.19,2.45.08,4.93.08,7.39,0,6.34.06,12.68,0,19-.05,3.77-2.8,6.12-6,5.27A4.46,4.46,0,0,1,180.89,50C180.84,45.51,180.87,41,180.87,36.5Z" transform="translate(-0.44 -0.39)"/>
  <path class="cls-1" d="M172.24,18.73c0,4.35.08,8.71,0,13.07-.09,3.89-3.62,6.15-6.85,4.51a4.59,4.59,0,0,1-2.6-4.28c0-8.93-.07-17.86,0-26.78a4.72,4.72,0,1,1,9.43,0c.1,4.5,0,9,0,13.5Z" transform="translate(-0.44 -0.39)"/>
  <path class="cls-1" d="M23.51,54.85c0,4.15,0,8.31,0,12.46,0,3.41-1.87,5.52-4.76,5.51S14,70.71,14,67.29c0-8.52,0-17,0-25.56,0-3.39,2.23-5.48,5.27-5.16,2.5.26,4.16,2.14,4.2,5,.06,4.43,0,8.87,0,13.31Z" transform="translate(-0.44 -0.39)"/>
  <path class="cls-1" d="M99.45,86.58a28.15,28.15,0,0,1-8.3-3.72c-2.72-1.86-3.51-4.52-2-6.85s4.32-2.89,7.21-1.08c3.07,1.92,6.25,3.29,10,2.28a9.3,9.3,0,0,0,2.34-.93c2.82-1.62,2.88-4,.1-5.65A54.81,54.81,0,0,0,101,67.3a36.74,36.74,0,0,1-6.44-3.11c-8.18-5.4-8.24-15.49-.14-21a36.31,36.31,0,0,1,5.08-2.51c.46-1.36.18-2.71.24-4,.13-2.6,1.66-4.38,4-4.62A4.54,4.54,0,0,1,109,35.79a39.83,39.83,0,0,1,.38,4.37c1.16,1,2.63,1.12,3.9,1.69a21.76,21.76,0,0,1,5.1,2.94,4.68,4.68,0,0,1,1.14,6.41A4.53,4.53,0,0,1,113,52.48c-2.73-1.68-5.48-3.16-8.85-2.91a8.36,8.36,0,0,0-4.7,1.65c-2.11,1.62-2.11,3.52.13,4.91a35.33,35.33,0,0,0,4.55,2.2c2.9,1.27,5.94,2.2,8.74,3.72,4.83,2.63,7.84,6.43,7.38,12.21-.44,5.51-3.88,8.83-8.58,11.12-.69.34-1.41.61-2.06.88-.74,1.52-.28,3-.47,4.48-.5,3.89-4.38,5.89-7.43,3.8a4.47,4.47,0,0,1-2-3.75A14,14,0,0,0,99.45,86.58Z" transform="translate(-0.44 -0.39)"/>
</svg>