<?xml version="1.0" encoding="utf-8"?>
<svg xmlns="http://www.w3.org/2000/svg" id="Layer_4" data-name="Layer 4" viewBox="0 0 199.49 163.36">
  <defs>
    <style>.cls-1{fill:#f13f71;}</style>
  </defs>
  <title>4</title>
  <path class="cls-1" d="M85.43,19.64a3.31,3.31,0,0,1,1.4,3c0,7.55,0,15.09,0,22.64,0,2.36-.79,3.13-3.17,3.15H77.47a13.48,13.48,0,0,0-.14,4.22,2.19,2.19,0,0,0,1.51.68A21.54,21.54,0,0,1,96.38,74.83q0,43.2,0,86.4A21.44,21.44,0,0,1,74.67,183H22.23A21.45,21.45,0,0,1,.51,161.24q0-43.19,0-86.39A21.57,21.57,0,0,1,17.71,53.4a4.66,4.66,0,0,0,1.65-.5,8.61,8.61,0,0,0,0-4.45H13.4c-2.59,0-3.32-.74-3.32-3.31,0-7.44,0-14.88,0-22.32a3.4,3.4,0,0,1,1.4-3.18ZM5.62,134.77H91.21V86.85H5.62ZM15.37,140a3.51,3.51,0,0,0-.29,1.87q0,9.17,0,18.32c0,5.33,2.86,8.18,8.18,8.19q25.17,0,50.34,0c5.33,0,8.19-2.86,8.2-8.16q0-9.24,0-18.48c0-.56.17-1.18-.39-1.74ZM81.64,43.32V24.69H15.22V43.32Zm.17,38.25V76.84c0-6.8-2.44-9.26-9.18-9.26H51q-13.94,0-27.88,0c-3.82,0-6.56,1.71-7.5,4.75s-.39,6.07-.5,9.24ZM72.1,48.62H24.64c0,2.18,0,4.19,0,6.21,0,2.28-.59,2.93-2.8,3.23-1.11.15-2.23.21-3.31.45-7.83,1.81-12.82,8.23-13,16.72,0,2.1,0,4.2,0,6.42,1.66,0,3,.26,4.56-.22,0-2.23,0-4.44,0-6.66A11.89,11.89,0,0,1,22.25,62.58q26.22,0,52.43,0a11.07,11.07,0,0,1,2.69.22,12,12,0,0,1,9.44,11.86c0,2.26,0,4.53,0,6.87a12.69,12.69,0,0,0,4.56,0c0-2.19,0-4.25,0-6.31-.21-8.5-5.21-14.91-13-16.69A23.16,23.16,0,0,0,73.26,58Q53.1,58,32.94,58a8.4,8.4,0,0,1-1.74-.07,2.29,2.29,0,0,1-2-2.51,2.26,2.26,0,0,1,2-2.35A8.46,8.46,0,0,1,32.94,53H70.06a2.89,2.89,0,0,0,2.13-.38A18.14,18.14,0,0,0,72.1,48.62ZM5.64,140.13c0,.51-.12.87-.12,1.24,0,6.48,0,12.95,0,19.43A19.62,19.62,0,0,0,6,164.91c1.77,7.93,8.34,13,17,13.06q25.48.08,51,0a19.9,19.9,0,0,0,4.42-.5c7.94-1.82,12.92-8.38,13-17,0-6.22,0-12.43,0-18.65,0-.56.16-1.18-.42-1.75a13,13,0,0,0-3.89.11,3.82,3.82,0,0,0-.24,2c0,6.43,0,12.86,0,19.28a11.88,11.88,0,0,1-12,12q-26.29,0-52.58,0a11.88,11.88,0,0,1-12.12-12.09c0-6.42,0-12.85,0-19.28a3.11,3.11,0,0,0-.33-2A14.26,14.26,0,0,0,5.64,140.13Z" transform="translate(-0.51 -19.64)"/>
  <path class="cls-1" d="M189,19.64a3.32,3.32,0,0,1,1.41,3c0,7.55,0,15.09,0,22.64,0,2.36-.8,3.13-3.17,3.15h-6.17a13.19,13.19,0,0,0-.14,4.22,2.16,2.16,0,0,0,1.51.68A21.53,21.53,0,0,1,200,74.83q0,43.2,0,86.4A21.46,21.46,0,0,1,178.29,183H125.85a21.45,21.45,0,0,1-21.72-21.75q0-43.19,0-86.39A21.56,21.56,0,0,1,121.32,53.4a4.66,4.66,0,0,0,1.65-.5,8.49,8.49,0,0,0,0-4.45H117c-2.59,0-3.33-.74-3.33-3.31,0-7.44,0-14.88,0-22.32a3.43,3.43,0,0,1,1.41-3.18Zm-79.8,115.13h85.59V86.85H109.24ZM119,140a3.4,3.4,0,0,0-.28,1.87q0,9.17,0,18.32c0,5.33,2.85,8.18,8.17,8.19q25.17,0,50.34,0c5.34,0,8.19-2.86,8.21-8.16q0-9.24,0-18.48c0-.56.16-1.18-.4-1.74Zm66.28-96.72V24.69H118.83V43.32Zm.16,38.25V76.84c0-6.8-2.44-9.26-9.18-9.26H154.58q-13.94,0-27.87,0c-3.83,0-6.56,1.71-7.51,4.75s-.38,6.07-.49,9.24Zm-9.7-32.95H128.26c0,2.18,0,4.19,0,6.21,0,2.28-.59,2.93-2.81,3.23-1.1.15-2.23.21-3.31.45-7.83,1.81-12.81,8.23-13,16.72,0,2.1,0,4.2,0,6.42,1.66,0,3,.26,4.56-.22,0-2.23,0-4.44,0-6.66a11.9,11.9,0,0,1,12.18-12.19q26.2,0,52.42,0a11.07,11.07,0,0,1,2.69.22,12,12,0,0,1,9.45,11.86c0,2.26,0,4.53,0,6.87a12.63,12.63,0,0,0,4.55,0c0-2.19.05-4.25,0-6.31-.21-8.5-5.21-14.91-13-16.69a23.1,23.1,0,0,0-5.06-.49q-20.15,0-40.31,0a8.52,8.52,0,0,1-1.75-.07,2.29,2.29,0,0,1-2-2.51,2.27,2.27,0,0,1,2-2.35,8.52,8.52,0,0,1,1.75-.07h37.13a2.87,2.87,0,0,0,2.12-.38A18.74,18.74,0,0,0,175.72,48.62Zm-66.46,91.51c-.05.51-.12.87-.12,1.24,0,6.48,0,12.95,0,19.43a19.61,19.61,0,0,0,.46,4.11c1.78,7.93,8.35,13,17,13.06q25.5.08,51,0a19.82,19.82,0,0,0,4.41-.5c7.94-1.82,12.93-8.38,13-17,0-6.22,0-12.43,0-18.65,0-.56.17-1.18-.41-1.75a13,13,0,0,0-3.89.11,3.72,3.72,0,0,0-.24,2c0,6.43,0,12.86,0,19.28a11.88,11.88,0,0,1-12,12q-26.28,0-52.57,0a11.87,11.87,0,0,1-12.12-12.09c0-6.42,0-12.85,0-19.28a3.1,3.1,0,0,0-.32-2A14.25,14.25,0,0,0,109.26,140.13Z" transform="translate(-0.51 -19.64)"/>
</svg>