<?xml version="1.0" encoding="utf-8"?>
<svg xmlns="http://www.w3.org/2000/svg" version="1.0" width="209.000000pt" height="150.000000pt" viewBox="0 0 209.000000 150.000000" preserveAspectRatio="xMidYMid meet">

<g transform="translate(0.000000,150.000000) scale(0.100000,-0.100000)" fill="#f13f71" stroke="none">
<path d="M1217 1446 c-123 -67 -140 -82 -139 -132 l1 -39 -312 0 c-274 -1&#xD;&#xA;-330 -4 -462 -24 -199 -30 -199 -30 -203 -109 -3 -55 -5 -62 -23 -62 -11 0&#xD;&#xA;-34 -13 -50 -29 l-29 -29 0 -428 c0 -411 1 -429 21 -470 30 -64 71 -79 269&#xD;&#xA;-101 317 -35 996 -19 1170 27 71 19 117 105 108 200 -2 22 -1 40 2 39 3 0 48&#xD;&#xA;-55 100 -121 66 -85 105 -125 129 -135 34 -14 37 -13 129 34 106 53 162 99&#xD;&#xA;162 132 0 30 -63 221 -127 386 -110 283 -272 555 -461 775 -95 110 -132 140&#xD;&#xA;-170 140 -9 0 -61 -25 -115 -54z m147 -84 c31 -95 114 -289 186 -432 114 -228&#xD;&#xA;226 -409 387 -623 41 -53 71 -101 68 -106 -5 -9 -168 -101 -178 -101 -12 0&#xD;&#xA;-177 210 -249 315 -137 199 -245 404 -333 625 -54 138 -99 284 -89 287 5 2 45&#xD;&#xA;23 89 48 44 24 85 45 90 45 6 0 18 -26 29 -58z m183 -179 c133 -177 248 -381&#xD;&#xA;324 -571 17 -42 40 -98 50 -124 10 -27 17 -48 14 -48 -8 0 -169 251 -222 345&#xD;&#xA;-86 153 -240 475 -228 475 2 0 30 -35 62 -77z m-465 11 c25 -6 45 -31 33 -42&#xD;&#xA;-12 -13 -494 -14 -624 -2 -186 17 -198 25 -61 39 63 6 131 13 150 15 49 6 469&#xD;&#xA;-3 502 -10z m-779 -98 c224 -36 597 -45 793 -20 50 6 51 6 62 -25 10 -28 9&#xD;&#xA;-31 -11 -36 -46 -9 -269 -25 -365 -25 -163 0 -492 37 -584 66 -22 7 -25 54 -3&#xD;&#xA;54 8 0 57 -6 108 -14z m-93 -120 c185 -39 368 -58 570 -58 161 -1 349 13 402&#xD;&#xA;28 13 4 22 -8 39 -48 38 -91 153 -309 212 -402 l57 -90 0 -117 c0 -157 -4&#xD;&#xA;-163 -137 -178 -305 -35 -694 -42 -983 -16 -205 18 -260 28 -277 51 -10 14&#xD;&#xA;-13 108 -13 436 0 230 3 418 8 418 4 0 59 -11 122 -24z"/>
</g>
</svg>