<?xml version="1.0" encoding="utf-8"?>
<svg xmlns="http://www.w3.org/2000/svg" id="Layer_1" data-name="Layer 1" viewBox="0 0 432.28 512">
  <title>verified1</title>
  <path fill="#01913e" d="M240,520h-8c-36.76-14.81-70.46-34.78-99.74-61.55Q21.39,357.1,20,206.64c-0.28-31,0-62,0-93,0-14,3.66-19.21,16.64-24.59Q134.34,48.59,232,8h8c1.84,0.75,3.68,1.48,5.51,2.24Q341.59,50.14,437.67,90c9.76,4,14.42,11,14.37,21.65-0.13,30.66.55,61.33-.25,92-0.53,20.42-1.63,41-4.95,61.13-11.47,69.59-42.78,129.39-92.22,179.61C321.82,477.71,283.35,502.6,240,520ZM413.26,180.2l-1.26-.08c0-17.5-.12-35,0.09-52.49,0-3.76-1.14-5.45-4.62-6.89-55.81-23.05-111.54-46.3-167.37-69.32a11.45,11.45,0,0,0-7.92-.06q-84,34.62-167.83,69.5c-3.23,1.34-4.47,2.84-4.45,6.47,0.17,27,.08,54,0.1,81a270.89,270.89,0,0,0,6,58.55c21.49,97,77.27,166.77,166.71,209.73a9.13,9.13,0,0,0,6.86,0,290.39,290.39,0,0,0,109.64-86.3c32.07-41,52.38-87.32,59.4-138.84C411.78,227.9,411.79,204,413.26,180.2Z" transform="translate(-19.91 -8)"/>
  <path fill="#01913e" d="M213.89,275.47c1.53-1.44,2.87-2.64,4.14-3.9Q258.31,231.3,298.56,191c5.6-5.62,12.05-8.35,19.87-6.56a19.9,19.9,0,0,1,11.11,31.95,47.14,47.14,0,0,1-3.75,4q-47.68,47.7-95.38,95.39c-11,11-21.93,11.06-32.93.06q-26.51-26.48-53-53c-5.75-5.76-8-12.6-5.54-20.54,2.37-7.69,7.73-12.33,15.55-13.86,7.3-1.42,13.39,1.21,18.53,6.36q18.36,18.38,36.74,36.74C211,272.83,212.38,274,213.89,275.47Z" transform="translate(-19.91 -8)"/>
</svg>